<svg xmlns="http://www.w3.org/2000/svg" width="24" height="24" fill="none">
  <symbol id="chevron-down" viewBox="0 0 24 24">
    <path
      fill="currentColor"
      fill-rule="evenodd"
      d="M4.293 8.293a1 1 0 0 1 1.414 0L12 14.586l6.293-6.293a1 1 0 1 1 1.414 1.414l-7 7a1 1 0 0 1-1.414 0l-7-7a1 1 0 0 1 0-1.414"
      clip-rule="evenodd"
    />
  </symbol>
  <symbol id="chevron-right" viewBox="0 0 24 24">
    <path
      fill="currentColor"
      fill-rule="evenodd"
      d="M8.293 19.707a1 1 0 0 1 0-1.414L14.586 12 8.293 5.707a1 1 0 1 1 1.414-1.414l7 7a1 1 0 0 1 0 1.414l-7 7a1 1 0 0 1-1.414 0"
      clip-rule="evenodd"
    />
  </symbol>
</svg>