<svg xmlns="http://www.w3.org/2000/svg" width="24" height="24" fill="none">
  <symbol id="chevron-down" viewBox="0 0 24 24">
    <path
      fill="currentColor"
      fill-rule="evenodd"
      d="M4.293 8.293a1 1 0 0 1 1.414 0L12 14.586l6.293-6.293a1 1 0 1 1 1.414 1.414l-7 7a1 1 0 0 1-1.414 0l-7-7a1 1 0 0 1 0-1.414"
      clip-rule="evenodd"
    />
  </symbol>
  <symbol id="chevron-right" viewBox="0 0 24 24">
    <path
      fill="currentColor"
      d="M10.135 5.002c-.265 0-.521.08-.725.23q-.174.126-.28.302a.885.885 0 0 0-.08.762 1 1 0 0 0 .213.342l5.077 5.348-4.896 5.358a1 1 0 0 0-.207.346.88.88 0 0 0 .092.762q.11.174.285.3c.117.09.255.159.403.2a1.28 1.28 0 0 0 .903-.081c.136-.068.255-.16.348-.27l5.474-5.986A.93.93 0 0 0 17 11.98a.93.93 0 0 0-.258-.633L11.076 5.36a1.1 1.1 0 0 0-.422-.279 1.3 1.3 0 0 0-.519-.08" />
  </symbol>
  <symbol id="chevron-left" viewBox="0 0 24 24">
    <path
      fill="currentColor"
      d="M13.865 5.002c.264 0 .521.08.725.23q.174.126.28.302.104.176.125.374a.9.9 0 0 1-.046.388 1 1 0 0 1-.212.342L9.66 11.986l4.896 5.358q.143.155.207.346a.88.88 0 0 1-.092.762 1 1 0 0 1-.285.3q-.177.137-.403.2a1.28 1.28 0 0 1-.903-.081 1.1 1.1 0 0 1-.348-.27l-5.474-5.986A.93.93 0 0 1 7 11.98c0-.23.091-.455.258-.633l5.666-5.987c.114-.12.258-.216.422-.279a1.3 1.3 0 0 1 .519-.08" />
  </symbol>
</svg>