<svg xmlns="http://www.w3.org/2000/svg" viewBox="0 0 441 481" id="blob1">
  <path
    d="M298.209 155.001C287.173 189.669 261.914 216.19 239.037 244.462C219.326 268.821 198.32 290.535 173.292 309.373C145.414 330.356 119.122 359.558 84.2732 360.946C49.3115 362.339 19.9507 336.407 -8.93254 316.634C-36.0889 298.044 -55.4251 272.427 -78.8344 249.286C-110.874 217.612 -166.167 199.642 -172.434 155.001C-178.493 111.845 -134.511 78.3497 -107.647 44.0607C-83.8376 13.6712 -57.2616 -13.2453 -24.5625 -33.7378C9.01462 -54.7805 45.0816 -81.9806 84.2732 -76.2154C123.401 -70.4596 140.038 -20.5008 176.088 -4.2213C218.116 14.7576 280.755 -11.4202 308.836 25.1917C335.703 60.222 311.604 112.919 298.209 155.001Z"
    fill="white"
  />
</svg>